<svg width="32" height="32" viewBox="0 0 32 32" fill="none" xmlns="http://www.w3.org/2000/svg">
<path d="M6.66732 4H25.334C26.0704 4 26.6673 4.59696 26.6673 5.33333V18.6667H5.33398V5.33333C5.33398 4.59696 5.93094 4 6.66732 4Z" fill="#000091"/>
<path d="M10.9356 23.1788C11.1246 22.9898 10.9907 22.6667 10.7234 22.6667H4.3C4.13431 22.6667 4 22.5324 4 22.3667V20.3C4 20.1343 4.13431 20 4.3 20H27.7C27.8657 20 28 20.1343 28 20.3V22.3667C28 22.5324 27.8657 22.6667 27.7 22.6667H21.2765C21.0093 22.6667 20.8754 22.9898 21.0644 23.1788L24.6637 26.778C24.7809 26.8952 24.7809 27.0851 24.6637 27.2023L23.2023 28.6637C23.0851 28.7809 22.8952 28.7809 22.778 28.6637L17.8455 23.7311C17.6565 23.5421 17.3333 23.6759 17.3333 23.9432V26.3667C17.3333 26.5324 17.199 26.6667 17.0333 26.6667H14.9667C14.801 26.6667 14.6667 26.5324 14.6667 26.3667V23.9432C14.6667 23.6759 14.3435 23.5421 14.1545 23.7311L9.22195 28.6637C9.10479 28.7809 8.91484 28.7809 8.79768 28.6637L7.33632 27.2023C7.21917 27.0851 7.21917 26.8952 7.33633 26.778L10.9356 23.1788Z" fill="#C0000D"/>
</svg>
