<svg width="133" height="40" viewBox="0 0 133 40" fill="none" xmlns="http://www.w3.org/2000/svg">
<path d="M10.6666 8H29.3333C30.0697 8 30.6666 8.59696 30.6666 9.33333V22.6667H9.33325V9.33333C9.33325 8.59696 9.93021 8 10.6666 8Z" fill="#000091"/>
<path d="M14.9356 27.1788C15.1246 26.9898 14.9907 26.6667 14.7234 26.6667H8.3C8.13431 26.6667 8 26.5324 8 26.3667V24.3C8 24.1343 8.13431 24 8.3 24H31.7C31.8657 24 32 24.1343 32 24.3V26.3667C32 26.5324 31.8657 26.6667 31.7 26.6667H25.2765C25.0093 26.6667 24.8754 26.9898 25.0644 27.1788L28.6637 30.778C28.7809 30.8952 28.7809 31.0851 28.6637 31.2023L27.2023 32.6637C27.0851 32.7809 26.8952 32.7809 26.778 32.6637L21.8455 27.7311C21.6565 27.5421 21.3333 27.6759 21.3333 27.9432V30.3667C21.3333 30.5324 21.199 30.6667 21.0333 30.6667H18.9667C18.801 30.6667 18.6667 30.5324 18.6667 30.3667V27.9432C18.6667 27.6759 18.3435 27.5421 18.1545 27.7311L13.222 32.6637C13.1048 32.7809 12.9148 32.7809 12.7977 32.6637L11.3363 31.2023C11.2192 31.0851 11.2192 30.8952 11.3363 30.778L14.9356 27.1788Z" fill="#C0000D"/>
<path d="M42.266 30V14.6H47.348C50.736 14.6 52.804 16.338 52.804 19.198C52.804 22.036 50.736 23.774 47.348 23.774H45.39V30H42.266ZM47.48 17.196H45.39V21.178H47.48C48.8 21.178 49.592 20.408 49.592 19.154C49.592 17.988 48.8 17.196 47.48 17.196ZM54.5308 30V18.912H57.3248V20.012C58.0508 19.264 58.9968 18.692 60.2508 18.692C60.6248 18.692 60.9548 18.758 61.2188 18.846V21.596C60.8668 21.508 60.4928 21.442 59.9868 21.442C58.6228 21.442 57.7428 22.19 57.3248 22.894V30H54.5308ZM72.7637 28.196C71.7297 29.582 70.0137 30.44 67.9237 30.44C63.9857 30.44 61.7637 27.69 61.7637 24.456C61.7637 21.178 63.8317 18.472 67.4617 18.472C70.5417 18.472 72.5657 20.562 72.5657 23.466C72.5657 24.082 72.4777 24.654 72.3897 25.028H64.6237C64.8877 27.096 66.1637 27.932 67.9017 27.932C69.1117 27.932 70.1677 27.404 70.7617 26.612L72.7637 28.196ZM67.3957 20.76C65.9657 20.76 65.0197 21.552 64.7117 23.004H69.8157C69.7717 21.882 68.9577 20.76 67.3957 20.76ZM74.2655 30V27.492L79.8975 21.42H74.4415V18.912H83.3955V21.42L77.7635 27.492H83.5495V30H74.2655Z" fill="#000091"/>
<rect x="93" y="12" width="40" height="16" rx="8" fill="#E0E0FF"/>
<path d="M100.133 24V16.3H102.399C104.005 16.3 104.984 17.092 104.984 18.39C104.984 19.017 104.698 19.556 104.159 19.908C104.973 20.271 105.424 20.931 105.424 21.734C105.424 23.142 104.335 24 102.564 24H100.133ZM102.432 17.598H101.695V19.336H102.432C103.026 19.336 103.378 19.017 103.378 18.456C103.378 17.917 103.026 17.598 102.432 17.598ZM102.652 20.634H101.695V22.702H102.652C103.378 22.702 103.818 22.317 103.818 21.668C103.818 21.008 103.378 20.634 102.652 20.634ZM106.917 24V16.3H111.405V17.598H108.479V19.424H110.965V20.722H108.479V22.702H111.405V24H106.917ZM112.479 17.719V16.3H118.793V17.719H116.417V24H114.855V17.719H112.479ZM118.346 24L121.261 16.3H123.307L126.222 24H124.561L123.824 21.998H120.744L120.007 24H118.346ZM121.228 20.667H123.34L122.284 17.774L121.228 20.667Z" fill="#4B4BD2"/>
</svg>
